<?xml version="1.0" standalone="no"?>
<!DOCTYPE svg PUBLIC "-//W3C//DTD SVG 20010904//EN"
 "http://www.w3.org/TR/2001/REC-SVG-20010904/DTD/svg10.dtd">
<svg version="1.0" xmlns="http://www.w3.org/2000/svg"
 width="700.000000pt" height="700.000000pt" viewBox="0 0 700.000000 700.000000"
 preserveAspectRatio="xMidYMid meet">
<metadata>
Created by potrace 1.14, written by Peter Selinger 2001-2017
</metadata>
<g transform="translate(0.000000,700.000000) scale(0.100000,-0.100000)"
fill="#000000" stroke="none">
<path d="M3451 6988 c-13 -7 -32 -24 -42 -38 -14 -19 -170 -511 -194 -610 -2
-8 -15 -62 -30 -120 -15 -58 -29 -114 -31 -125 -2 -11 -13 -65 -24 -120 -21
-107 -46 -259 -55 -340 -3 -27 -8 -63 -10 -80 -9 -59 -18 -212 -19 -315 l-1
-105 455 0 455 0 -1 115 c-1 122 -9 225 -30 395 -7 56 -30 208 -39 255 -3 14
-7 39 -10 55 -3 17 -16 80 -30 140 -15 61 -28 117 -30 125 -10 48 -36 136
-117 410 -100 337 -109 354 -183 365 -24 3 -49 1 -64 -7z"/>
<path d="M3033 4623 l0 -278 -79 -160 c-43 -88 -82 -162 -85 -165 -4 -3 -9
-16 -10 -29 l-4 -24 643 -1 c354 -1 646 2 648 6 3 4 -37 92 -88 195 l-93 188
0 273 1 272 -466 0 -466 0 -1 -277z"/>
<path d="M2804 3731 c-2 -2 -4 -581 -4 -1285 l0 -1281 700 0 700 0 0 1285 0
1285 -696 0 c-383 0 -698 -2 -700 -4z"/>
<path d="M2833 925 c-2 -6 12 -73 32 -148 19 -76 35 -139 35 -141 0 -2 -16
-23 -35 -46 -49 -59 -66 -124 -64 -250 2 -169 45 -249 165 -310 l59 -30 480 3
c463 2 482 3 525 23 62 28 126 96 149 158 16 42 19 73 18 176 -2 136 -18 188
-74 244 l-25 26 30 117 c41 157 45 183 30 184 -7 1 -307 2 -667 3 -443 1 -655
-2 -658 -9z"/>
</g>
</svg>
